<svg xmlns="http://www.w3.org/2000/svg" width="400" height="175">
    <style>
        .title { font-family: 'JetBrains Mono', 'Fira Code', monospace; fill: #fff; font-size: 14px; font-weight: bold; }
        .lang {font-family: 'JetBrains Mono', 'Fira Code', monospace; fill: #fff; font-size: 12px;}
        .percent {font-family: 'JetBrains Mono', 'Fira Code', monospace; fill: #bdbdbd; font-size: 10px;}
    </style>
    <rect width="100%" height="100%" fill="#0D0D0D"/>
    <text x="40" y="42" fill="#fff" class="title">Language (byte size)</text>
    <rect x="40" y="60" width="157" height="8" fill="#507dda"/>
<rect x="197" y="60" width="69" height="8" fill="#4fbd91"/>
<rect x="266" y="60" width="60" height="8" fill="#516280"/>
<rect x="326" y="60" width="19" height="8" fill="#d7a513"/>
<rect x="345" y="60" width="18" height="8" fill="#cb5b41"/>
    
        <circle cx="45" cy="85" r="5" fill="#507dda"/>
        <text class="lang" x="55" y="90">JavaScript/TS</text>
        <text class="percent" x="153.919921875" y="90">48.86%</text>


        <circle cx="215" cy="85" r="5" fill="#4fbd91"/>
        <text class="lang" x="225" y="90">HTML/CSS</text>
        <text class="percent" x="287.796875" y="90">21.39%</text>


        <circle cx="45" cy="110" r="5" fill="#516280"/>
        <text class="lang" x="55" y="115">PHP</text>
        <text class="percent" x="81.673828125" y="115">18.60%</text>


        <circle cx="215" cy="110" r="5" fill="#d7a513"/>
        <text class="lang" x="225" y="115">Others</text>
        <text class="percent" x="273.34765625" y="115">5.77%</text>


        <circle cx="45" cy="135" r="5" fill="#cb5b41"/>
        <text class="lang" x="55" y="140">Go</text>
        <text class="percent" x="74.44921875" y="140">5.38%</text>

</svg>
