<svg xmlns="http://www.w3.org/2000/svg" width="400" height="225">
    <style>
        .title { font-family: 'JetBrains Mono', 'Fira Code', monospace; fill: #fff; font-size: 14px; font-weight: bold; }
        .lang {font-family: 'JetBrains Mono', 'Fira Code', monospace; fill: #fff; font-size: 12px;}
        .percent {font-family: 'JetBrains Mono', 'Fira Code', monospace; fill: #bdbdbd; font-size: 10px;}
    </style>
    <rect width="100%" height="100%" fill="#0D0D0D"/>
    <text x="40" y="42" fill="#fff" class="title">Language (repos)</text>
    <rect x="40" y="60" width="97" height="8" fill="#507dda"/>
<rect x="137" y="60" width="90" height="8" fill="#4fbd91"/>
<rect x="227" y="60" width="37" height="8" fill="#516280"/>
<rect x="264" y="60" width="30" height="8" fill="#d7a513"/>
<rect x="294" y="60" width="17" height="8" fill="#cb5b41"/>
<rect x="311" y="60" width="16" height="8" fill="#5fafcf"/>
<rect x="327" y="60" width="15" height="8" fill="#8062b1"/>
<rect x="342" y="60" width="10" height="8" fill="#df8943"/>
<rect x="352" y="60" width="8" height="8" fill="#218786"/>
<rect x="360" y="60" width="5" height="8" fill="#df86ab"/>
    
        <circle cx="45" cy="85" r="5" fill="#507dda"/>
        <text class="lang" x="55" y="90">JavaScript/TS</text>
        <text class="percent" x="153.919921875" y="90">30.05%</text>


        <circle cx="215" cy="85" r="5" fill="#4fbd91"/>
        <text class="lang" x="225" y="90">HTML/CSS</text>
        <text class="percent" x="287.796875" y="90">27.83%</text>


        <circle cx="45" cy="110" r="5" fill="#516280"/>
        <text class="lang" x="55" y="115">Shell Scripts</text>
        <text class="percent" x="153.919921875" y="115">11.45%</text>


        <circle cx="215" cy="110" r="5" fill="#d7a513"/>
        <text class="lang" x="225" y="115">Docker</text>
        <text class="percent" x="273.34765625" y="115">9.36%</text>


        <circle cx="45" cy="135" r="5" fill="#cb5b41"/>
        <text class="lang" x="55" y="140">Python</text>
        <text class="percent" x="103.34765625" y="140">5.17%</text>


        <circle cx="215" cy="135" r="5" fill="#5fafcf"/>
        <text class="lang" x="225" y="140">Others</text>
        <text class="percent" x="273.34765625" y="140">4.93%</text>


        <circle cx="45" cy="160" r="5" fill="#8062b1"/>
        <text class="lang" x="55" y="165">PHP</text>
        <text class="percent" x="81.673828125" y="165">4.43%</text>


        <circle cx="215" cy="160" r="5" fill="#df8943"/>
        <text class="lang" x="225" y="165">C/Cpp</text>
        <text class="percent" x="266.123046875" y="165">2.83%</text>


        <circle cx="45" cy="185" r="5" fill="#218786"/>
        <text class="lang" x="55" y="190">Go</text>
        <text class="percent" x="74.44921875" y="190">2.46%</text>


        <circle cx="215" cy="185" r="5" fill="#df86ab"/>
        <text class="lang" x="225" y="190">Rust</text>
        <text class="percent" x="258.8984375" y="190">1.48%</text>

</svg>
